<svg version="1.1" id="Layer_1" xmlns="http://www.w3.org/2000/svg" xmlns:xlink="http://www.w3.org/1999/xlink" x="0px" y="0px"
	 width="100%" viewBox="0 0 880 1024" enable-background="new 0 0 880 1024" xml:space="preserve">
<path fill="#000000" opacity="1.000000" stroke="none" 
	d="
M188.468643,1025.000000 
	C184.327850,1023.096313 180.594727,1021.300354 176.997742,1019.263916 
	C171.466766,1016.132629 175.663971,1012.846375 177.033569,1009.676331 
	C178.725784,1005.759583 180.888702,1008.186646 183.002853,1009.279419 
	C190.705414,1013.260864 198.721237,1015.439026 207.512222,1013.878113 
	C217.562469,1012.093689 223.156952,1003.810913 221.011703,992.819336 
	C212.401169,999.703247 202.882385,1001.858337 192.405441,998.841248 
	C185.438263,996.835022 179.775070,992.862793 175.581161,986.983093 
	C167.128052,975.132141 168.254257,957.892822 178.132980,947.817200 
	C187.642960,938.117615 204.024643,932.392578 221.200943,945.640137 
	C222.896500,943.793335 221.164673,940.149292 223.910370,939.251221 
	C226.036484,938.555725 228.504532,938.920410 230.818573,938.780518 
	C233.758728,938.602722 235.128372,939.994690 235.116287,942.906494 
	C235.040344,961.222900 235.324371,979.549377 234.793793,997.852356 
	C234.420120,1010.742615 228.678757,1020.509277 215.273911,1024.789795 
	C206.312439,1025.000000 197.624863,1025.000000 188.468643,1025.000000 
M194.672455,985.994873 
	C195.781250,986.344788 196.873337,986.765015 198.001556,987.033203 
	C206.335739,989.014709 215.288315,985.558960 219.408905,978.800842 
	C223.479019,972.125549 222.461090,961.747070 217.162857,955.899658 
	C212.024353,950.228638 201.790710,948.148743 194.498886,951.516113 
	C188.302505,954.377686 184.530701,959.147644 183.991760,966.152527 
	C183.333954,974.702698 185.940430,981.583069 194.672455,985.994873 
z"/>
<path fill="#000000" opacity="1.000000" stroke="none" 
	d="
M569.583313,514.418945 
	C607.780334,504.640747 646.161316,499.851868 685.197327,500.965790 
	C690.107056,501.105865 691.044617,499.043060 691.039429,494.783112 
	C690.969666,437.125763 691.018982,379.468323 691.013550,321.810883 
	C691.010620,290.480865 690.966431,259.150848 690.913025,227.820877 
	C690.909973,226.021103 691.270569,224.154388 690.206055,222.111969 
	C687.231201,221.573227 684.171448,222.376450 681.122620,222.809158 
	C678.086304,223.240097 676.744690,222.057571 676.784607,219.024368 
	C676.861450,213.192413 676.923218,207.359161 676.881470,201.527237 
	C676.863159,198.969330 678.125977,198.008163 680.498047,197.781982 
	C690.768433,196.802673 701.048157,195.888901 711.290833,194.669022 
	C715.888550,194.121445 717.294434,195.522858 717.277283,200.267242 
	C717.110657,246.264069 717.179077,292.261749 717.180603,338.259186 
	C717.182617,398.922638 717.186218,459.586060 717.184998,520.249512 
	C717.184814,528.097900 717.178650,528.037903 709.462097,527.362854 
	C629.356384,520.355835 553.638672,535.441040 482.550568,573.013062 
	C469.175415,580.082275 456.078461,587.833496 443.976837,597.023010 
	C440.468475,599.687134 437.899811,599.541626 434.302399,597.041443 
	C394.936951,569.682983 352.198151,549.633728 305.622375,537.870728 
	C263.077515,527.125732 219.932602,524.023804 176.255630,527.050049 
	C172.767227,527.291748 169.228210,527.242065 165.802795,527.842041 
	C161.484848,528.598389 160.053055,526.877014 160.075180,522.802124 
	C160.158432,507.470215 160.095886,492.137543 160.141251,476.805328 
	C160.190994,459.993073 160.529831,443.178253 160.331894,426.369415 
	C159.982605,396.711731 160.067764,367.062592 160.439697,337.404175 
	C160.683990,317.924347 161.029480,298.429108 160.213043,278.934601 
	C159.802780,269.138367 160.427673,259.302795 160.402481,249.485519 
	C160.364471,234.675003 160.323166,219.861267 159.980698,205.055893 
	C159.765854,195.768234 159.762970,195.336685 169.059250,195.810440 
	C178.361786,196.284515 187.640015,197.225235 196.932693,197.910004 
	C199.766525,198.118820 201.124161,199.468750 201.106781,202.362564 
	C201.072739,208.028320 201.046509,213.697723 201.214264,219.359772 
	C201.316925,222.824783 199.684616,223.524765 196.579971,223.326859 
	C187.013626,222.717133 186.960419,222.804306 186.954575,232.511719 
	C186.917603,293.839996 187.226120,355.170929 186.730072,416.495361 
	C186.518494,442.651367 187.273407,468.790894 186.931992,494.936157 
	C186.872406,499.498993 188.351517,501.019287 192.972595,500.898376 
	C231.151215,499.899384 268.745605,504.290009 305.754944,513.685974 
	C324.340637,518.404480 342.510681,524.407166 360.302246,531.559204 
	C362.277802,532.353394 364.287109,533.063599 366.825562,534.017517 
	C366.608307,531.479065 364.957184,530.770691 363.778503,529.953796 
	C326.552673,504.153015 285.962280,486.460571 241.001556,479.558807 
	C232.952347,478.323212 224.764893,477.672791 216.623535,477.472107 
	C211.782532,477.352722 210.776443,475.383636 210.793442,471.113708 
	C210.899445,444.448914 210.825058,417.783386 210.819382,391.118103 
	C210.802750,312.955627 210.779343,234.793152 210.788605,156.630676 
	C210.789932,145.465576 210.421021,147.587814 219.905411,147.725769 
	C264.067261,148.368057 307.116547,155.129318 348.208038,171.965698 
	C371.137299,181.360504 392.462891,193.629562 412.050659,208.852524 
	C413.078461,209.651306 413.966431,210.630035 415.114990,211.708557 
	C412.396851,215.134079 408.096100,214.923065 405.015533,216.937500 
	C395.919342,222.885651 388.397522,220.975662 379.359467,215.037888 
	C346.407959,193.389618 309.800812,181.214233 270.737518,176.119278 
	C261.137177,174.867126 251.476746,174.625763 241.892776,173.472870 
	C237.538437,172.949081 236.004318,174.250183 236.010834,178.774948 
	C236.093491,236.104263 236.024994,293.433807 235.990799,350.763306 
	C235.971619,382.927368 236.048462,415.092163 235.816513,447.254700 
	C235.778870,452.472656 237.347183,454.498322 242.639252,455.197235 
	C275.841217,459.582123 307.136902,470.044647 336.665466,485.774536 
	C340.047485,487.576111 341.849640,486.898621 344.029877,483.914093 
	C358.253540,464.443420 357.289001,441.076111 341.307831,422.953674 
	C300.207672,376.346252 303.438141,302.816101 348.208221,259.904877 
	C361.984772,246.700287 378.145477,237.935837 395.848480,231.435226 
	C423.322174,221.346771 448.932770,208.055588 469.450806,186.576813 
	C478.104095,177.518295 485.264160,167.264908 491.953369,156.678635 
	C494.178375,153.157394 493.450012,151.287964 489.742523,149.366699 
	C475.249207,141.856155 460.903717,134.059784 446.522339,126.334259 
	C444.650269,125.328606 442.500366,124.644974 440.707855,121.476303 
	C503.942932,86.084198 567.130432,50.718723 631.767456,14.541957 
	C640.340149,90.222618 648.728333,164.273956 657.312805,240.058472 
	C637.284424,229.293762 618.636108,219.270782 599.507812,208.989822 
	C582.813660,238.717361 566.375671,267.988831 550.059448,297.043396 
	C547.734863,297.152039 547.527771,295.524536 547.035583,294.435059 
	C544.080200,287.893402 540.643433,281.609863 536.908447,275.495331 
	C535.442810,273.096008 535.369995,271.049042 536.767334,268.541077 
	C553.388123,238.709488 569.949707,208.844757 586.442017,178.941895 
	C588.084961,175.962952 589.717346,175.372162 592.789185,177.047302 
	C603.148743,182.696579 613.635010,188.113419 624.689758,193.944550 
	C625.251099,185.579758 624.003235,177.927200 623.236511,170.273102 
	C620.450317,142.458832 617.525024,114.658485 614.745911,86.843536 
	C614.407898,83.460442 613.484985,80.932983 610.183350,79.229088 
	C603.822021,75.946159 597.676880,72.246048 591.410156,68.776672 
	C590.062073,68.030350 588.653748,66.531212 586.778870,68.692467 
	C588.274231,71.176163 591.135071,71.885178 593.367798,73.299194 
	C598.995789,76.863487 604.714661,80.295166 610.514343,83.572510 
	C613.369080,85.185692 614.034790,87.096634 612.955444,90.155548 
	C609.062378,101.188812 606.072815,112.426834 606.052734,124.254913 
	C606.048828,126.559868 605.443848,128.342651 603.016479,129.426407 
	C586.449524,136.823013 571.733704,147.091080 557.939209,158.766006 
	C557.594421,159.057816 557.047485,159.110748 556.608032,159.270264 
	C555.126587,157.945374 556.154358,156.720963 556.725769,155.663925 
	C562.188782,145.557465 567.724731,135.490463 573.216858,125.399689 
	C575.403564,121.382042 577.869446,117.967239 582.728577,116.528336 
	C586.145386,115.516548 587.612671,112.383774 586.097473,108.864708 
	C584.616638,105.425606 581.471985,104.485794 578.134521,105.509499 
	C574.129578,106.737953 573.428528,110.224953 574.464050,113.643120 
	C575.340271,116.535179 574.812988,118.831573 573.435059,121.209747 
	C566.755249,132.738419 560.079834,144.269608 553.376526,155.784576 
	C552.908691,156.588211 552.537231,157.641586 550.911560,157.550171 
	C550.071655,155.383286 550.663086,153.084747 551.023438,150.912140 
	C553.616760,135.278244 555.448608,119.590759 553.820496,103.734619 
	C553.360229,99.251961 554.888733,96.716995 558.820740,94.606796 
	C568.644165,89.334747 576.394653,81.750938 581.743835,71.544640 
	C552.051880,88.097755 522.359985,104.650864 492.225159,121.450882 
	C494.499664,124.101059 497.007843,125.046700 499.258362,126.313103 
	C507.532410,130.969040 515.787415,135.662979 524.151917,140.151840 
	C527.287903,141.834747 527.837769,143.440613 526.245667,146.843903 
	C515.689087,169.409348 501.829315,189.658157 484.218628,207.257034 
	C467.291290,224.173050 447.750977,237.249420 425.488800,246.188751 
	C414.827057,250.469940 404.146851,254.718262 393.602478,259.276428 
	C357.229919,274.999725 335.152924,310.228485 337.432922,349.557800 
	C338.673462,370.956299 345.449646,390.667786 360.659363,406.155182 
	C382.579742,428.475861 384.328369,473.184967 365.365479,496.777893 
	C363.306763,499.339294 362.627991,501.332367 366.081116,503.639191 
	C391.606262,520.690613 413.811340,541.458252 433.789642,564.682495 
	C435.187561,566.307495 436.703308,567.831116 438.018219,569.244934 
	C440.577454,569.063293 441.384949,567.191956 442.527191,565.888428 
	C459.698364,546.293640 478.085785,527.963013 499.072906,512.439758 
	C538.675964,483.147247 582.335876,463.249176 631.283325,455.507324 
	C643.609192,453.557800 641.873840,455.159332 641.881775,443.440918 
	C641.925598,378.778137 641.898010,314.115326 641.926270,249.452530 
	C641.927063,247.531189 641.438232,245.453583 643.268494,243.296112 
	C651.081665,247.543930 658.627136,252.270142 665.848938,257.516937 
	C667.935303,259.032776 667.308411,261.474670 667.311829,263.566681 
	C667.368958,298.231201 667.387329,332.895782 667.392822,367.560364 
	C667.398254,402.225037 667.333313,436.889862 667.436035,471.554199 
	C667.447632,475.485016 666.374756,477.180023 662.166626,477.378906 
	C611.759949,479.761383 566.361206,497.184052 524.072571,523.767822 
	C519.036804,526.933472 513.750977,529.779114 509.541046,534.385193 
	C529.172913,526.939636 548.831848,519.664551 569.583313,514.418945 
z"/>
<path fill="#000000" opacity="1.000000" stroke="none" 
	d="
M404.508972,460.999817 
	C398.136261,458.284332 397.497498,456.978241 398.897400,450.636505 
	C399.103424,449.703156 399.197723,448.655396 398.998077,447.735596 
	C395.692474,432.505371 390.193878,418.686890 377.800568,408.029114 
	C361.864563,394.324738 352.334229,376.886597 349.285889,355.751556 
	C343.273773,314.067841 371.345398,274.010315 412.603638,264.672882 
	C457.223511,254.574661 504.582245,284.803223 510.942535,334.609222 
	C514.117004,359.467621 506.800568,381.802948 489.365723,400.253082 
	C479.240723,410.967682 472.705322,423.407715 469.717560,437.792206 
	C469.373047,439.450775 469.273193,441.014404 469.603516,442.709656 
	C470.866516,449.191132 468.261627,453.298462 461.868042,454.122406 
	C442.900391,456.566803 423.902008,458.772797 404.508972,460.999817 
M417.513672,359.091461 
	C419.346649,359.090057 421.179810,359.071045 423.012573,359.090332 
	C430.276764,359.166718 430.323090,359.217987 430.330139,366.277496 
	C430.335815,371.942810 430.335724,377.608185 430.358887,383.273438 
	C430.365387,384.858276 430.641083,386.433289 432.590363,386.598846 
	C434.665619,386.775116 435.593658,385.441528 435.729156,383.531921 
	C435.835175,382.038330 435.835541,380.535461 435.838898,379.036621 
	C435.859985,369.538940 435.635223,360.033813 435.935913,350.545258 
	C436.401733,335.845703 442.994934,327.296814 455.243347,325.203918 
	C457.997955,324.733246 460.884491,325.055176 463.708984,324.968811 
	C469.064545,324.805054 472.464691,321.425934 471.551453,316.313293 
	C470.353943,309.609436 469.267487,302.843414 466.959198,296.375275 
	C465.385437,291.965332 462.806122,288.484283 458.534119,286.294281 
	C454.069153,284.005402 449.980804,281.064301 446.362671,277.634583 
	C439.467621,271.098694 431.665894,271.167542 423.666748,274.468933 
	C415.516052,277.832825 408.924561,283.466064 403.500397,290.418243 
	C398.483368,296.848633 393.571350,303.362274 388.482635,309.735107 
	C383.645477,315.792908 382.269043,322.865936 382.111359,330.314575 
	C382.070221,332.258118 382.056549,334.389923 384.319183,335.527344 
	C386.821991,335.125458 388.143433,333.004364 389.905609,331.575867 
	C400.137726,323.281219 413.634735,322.728516 423.677612,330.195587 
	C426.451263,332.257843 427.927399,334.283966 425.148315,337.522980 
	C422.925446,340.113739 421.406860,342.027649 417.561096,339.096802 
	C409.541870,332.985321 399.723785,335.091888 394.175568,343.439941 
	C383.758026,359.114502 394.483978,382.118439 413.369049,384.601013 
	C416.471100,385.008820 418.609741,383.663696 419.540863,380.764008 
	C422.048950,372.953278 419.547119,369.357697 411.631042,369.181183 
	C411.464447,369.177460 411.297180,369.166107 411.131287,369.176056 
	C407.635742,369.386169 405.513641,368.531982 405.557434,364.243134 
	C405.599274,360.144928 407.464600,358.966766 411.045166,359.079041 
	C412.876312,359.136475 414.710632,359.092529 417.513672,359.091461 
M480.556061,348.355652 
	C479.519745,345.329742 477.611389,344.130341 474.407990,345.203552 
	C472.333160,345.898590 470.819916,345.639038 469.625366,343.203064 
	C466.475586,336.779663 462.584503,334.724823 457.127563,335.978302 
	C450.709747,337.452484 447.407898,341.506134 447.321106,348.547943 
	C447.193970,358.858246 447.219482,369.171356 447.284851,379.482605 
	C447.318390,384.777771 448.619141,385.627930 453.726654,383.772766 
	C460.483948,381.318451 466.090790,377.347687 469.814484,371.031006 
	C470.853149,369.269012 471.871948,367.359619 474.427063,368.668549 
	C478.680359,370.847351 480.329681,368.128632 481.155670,364.817200 
	C482.457306,359.598846 482.643921,354.295715 480.556061,348.355652 
z"/>
<path fill="#000000" opacity="1.000000" stroke="none" 
	d="
M555.275269,615.207947 
	C574.259460,595.575989 588.303711,573.382751 594.995239,547.072510 
	C596.540771,540.995361 600.591980,540.468445 605.256470,539.765076 
	C614.005066,538.445679 614.177429,538.743469 611.959961,547.402039 
	C603.816895,579.199463 587.657593,606.323669 564.320740,629.240295 
	C561.683777,631.829773 561.045410,633.791626 563.755920,636.679565 
	C565.788574,638.845398 567.341980,641.463684 569.070923,643.907288 
	C569.222168,644.121155 569.090942,644.534851 569.090942,645.238037 
	C565.203430,645.023254 563.188904,641.840515 560.608765,639.889954 
	C557.638611,637.644470 555.591858,637.378174 552.439880,639.913452 
	C527.145630,660.259033 498.540924,673.428711 466.422607,678.675903 
	C461.830383,679.426147 457.173828,679.930115 452.528046,680.154663 
	C449.291412,680.311096 447.892365,681.551941 447.239807,684.768921 
	C445.188202,694.883118 442.821686,704.933960 440.524689,714.997375 
	C440.171417,716.545227 440.319733,718.403076 438.323578,719.405579 
	C436.065552,717.069824 436.394775,713.876404 435.729584,711.094055 
	C433.678223,702.514404 431.734833,693.902954 430.039673,685.247009 
	C429.341400,681.681396 427.653076,680.276489 424.056610,679.987610 
	C403.811981,678.361511 384.335327,673.569336 365.745758,665.306213 
	C351.815369,659.114136 339.027893,651.073608 326.986328,641.748779 
	C319.545898,635.986938 321.441040,636.148865 314.126099,641.547974 
	C312.446320,642.787842 311.063141,644.586304 308.164490,645.069092 
	C308.965302,641.403931 311.135284,638.875610 313.130432,636.441284 
	C315.523376,633.521729 315.299255,631.594727 312.548065,628.931091 
	C294.844086,611.789978 281.333282,591.739929 271.748138,569.040771 
	C268.038757,560.256470 265.824646,551.030762 263.732147,541.772827 
	C263.564514,541.031128 263.804749,540.197144 263.868073,539.208984 
	C268.995880,538.146973 273.627716,539.592834 278.204041,540.904541 
	C280.598907,541.591125 280.841675,544.082520 281.420471,546.174316 
	C288.449310,571.576721 301.122314,593.765137 319.450958,612.703491 
	C321.504578,614.825378 323.380371,617.226624 326.267059,618.442627 
	C330.151154,616.024780 329.435272,613.862122 326.606232,610.967896 
	C309.210571,593.170959 296.091125,572.760681 289.259827,548.614502 
	C288.824005,547.074036 287.831268,545.588074 288.615509,543.734009 
	C292.975983,542.879395 294.807343,545.157593 296.019440,549.007874 
	C302.530579,569.691406 313.462952,587.812073 328.237091,603.635010 
	C329.800537,605.309509 331.293732,607.150391 333.874695,608.188049 
	C338.712891,602.985413 342.785950,597.134705 346.820831,591.271240 
	C348.298889,589.123291 346.036865,587.960205 344.994720,586.654785 
	C338.022217,577.920593 331.183624,569.104004 326.369171,558.926270 
	C325.677704,557.464478 325.122803,555.937988 324.380829,554.141602 
	C328.764069,553.033875 331.257172,554.217224 333.207855,557.951782 
	C338.060059,567.240906 343.739075,576.002747 351.306213,583.889465 
	C355.928864,580.408936 358.594482,575.927246 361.465271,571.775940 
	C364.291992,567.688232 367.147705,567.278076 370.977936,569.964478 
	C374.082550,572.141968 378.020142,572.911621 381.398529,576.045898 
	C373.761963,582.869934 366.255157,589.578125 358.748322,596.286316 
	C359.357117,596.925964 359.965912,597.565674 360.574707,598.205322 
	C369.206512,593.984619 376.201630,587.339905 384.028107,581.926697 
	C388.226074,579.023132 388.754211,579.065247 393.250275,583.143433 
	C386.771301,589.579529 378.297607,593.499573 371.644165,600.040405 
	C374.331970,603.796875 378.319916,605.294556 381.833008,607.250671 
	C390.756775,612.219421 400.425110,615.348022 410.230377,618.114746 
	C414.160583,619.223755 415.124146,617.857849 414.461456,614.232117 
	C413.124969,606.919861 410.621704,599.813721 410.319550,591.870117 
	C413.454834,592.536255 415.751556,594.178955 417.914307,595.818054 
	C423.371613,599.954102 429.080383,603.702576 434.996124,607.112488 
	C438.127075,608.917358 439.263519,611.273254 439.250854,614.844910 
	C439.182373,634.177002 439.293518,653.509766 439.376007,672.842163 
	C439.385742,675.121033 438.921997,677.513062 441.096558,680.519226 
	C442.718292,673.801880 444.279327,667.858887 445.578552,661.859131 
	C449.944977,641.695312 454.397980,621.546875 458.400330,601.309875 
	C459.398071,596.265076 462.348724,594.093872 467.378815,591.787415 
	C465.520966,600.976868 463.831757,609.332153 462.231110,617.249390 
	C463.714630,619.037170 465.126404,618.824951 466.360626,618.429382 
	C478.418823,614.564758 490.552917,610.848877 501.098175,603.476501 
	C505.525940,600.380981 505.597382,599.419800 501.364868,596.215637 
	C496.981964,592.897705 492.446930,589.781128 487.999146,586.548035 
	C486.693390,585.598877 485.033569,584.960571 484.489960,582.498474 
	C488.783783,580.092651 493.211395,577.592590 497.658844,575.128357 
	C499.786743,573.949280 501.057953,575.479187 502.411072,576.720032 
	C509.165100,582.913330 515.919983,589.105652 522.687622,595.284058 
	C523.370789,595.907776 524.141602,596.435425 525.647095,596.289124 
	C520.180664,589.058044 514.693115,581.842712 509.263977,574.583740 
	C508.054535,572.966736 505.824890,571.364075 508.604218,569.176392 
	C510.711182,567.517944 512.476990,566.953552 514.417725,569.642700 
	C517.698975,574.189270 520.503235,579.122681 524.912292,583.529358 
	C532.600037,575.938965 538.596375,567.448669 543.663025,558.253784 
	C546.181152,553.683960 546.499451,553.478577 552.602417,553.705322 
	C552.600281,557.417542 550.219177,560.142883 548.580750,563.057007 
	C544.077881,571.066284 538.640137,578.462769 532.579224,585.351929 
	C529.880920,588.418884 529.160461,590.907349 532.014038,594.375183 
	C535.694946,598.848389 538.873840,603.734741 542.343018,608.546021 
	C546.406555,606.760254 548.648804,603.565308 551.080444,600.740295 
	C564.367310,585.304321 574.959229,568.290039 580.786560,548.596863 
	C581.912598,544.791748 584.127380,543.070312 588.343323,543.898193 
	C589.132690,546.373901 588.015991,548.513977 587.319397,550.640625 
	C579.882263,573.344116 568.089661,593.388916 550.923340,610.154907 
	C546.554321,614.422058 546.571106,615.028442 550.403870,618.934448 
	C552.594910,618.671997 553.506226,616.643127 555.275269,615.207947 
M410.078217,624.495911 
	C395.483826,621.273132 381.870422,615.738403 369.489288,607.291443 
	C367.427338,605.884705 365.455566,604.265991 362.714966,606.029724 
	C356.875916,609.787415 351.350433,613.941223 345.640900,618.648071 
	C356.894867,628.052185 369.045471,635.113342 382.103333,640.598145 
	C393.028931,645.187378 404.462830,648.085388 416.206696,649.700867 
	C419.487274,650.152100 422.454376,650.376038 421.017456,645.291077 
	C419.846924,641.148682 418.885986,636.882996 418.465729,632.609619 
	C417.984741,627.718750 415.899963,624.934998 410.078217,624.495911 
M512.419434,631.886841 
	C518.857727,628.160583 525.403381,624.577942 531.110229,618.220825 
	C525.518677,614.136230 520.288391,610.402832 515.162170,606.531494 
	C512.827454,604.768311 510.897339,604.808594 508.444305,606.510254 
	C494.999664,615.836487 480.140533,621.932983 464.186432,625.444031 
	C462.747650,625.760681 460.848907,625.916077 460.364166,627.455933 
	C458.052704,634.798706 456.152161,642.244873 455.477600,650.380310 
	C476.159302,648.602112 494.434998,641.873596 512.419434,631.886841 
M526.770508,630.327637 
	C506.248657,644.310669 483.891449,653.526611 459.074219,656.289246 
	C454.926758,656.750916 451.978912,658.037659 453.146881,663.867798 
	C486.259155,660.145874 516.054565,648.999573 541.814758,627.225647 
	C539.462280,623.582458 537.096680,622.615906 533.816223,625.236267 
	C531.741333,626.893616 529.513733,628.359863 526.770508,630.327637 
M406.416931,660.901245 
	C411.242981,662.274231 416.231812,662.595947 421.176849,663.215942 
	C425.060425,663.702942 424.956726,661.674072 423.961365,658.998840 
	C423.170502,656.873230 421.225891,656.778076 419.439880,656.494812 
	C415.501221,655.870056 411.515259,655.493408 407.612396,654.701172 
	C384.408569,649.991150 363.317963,640.565857 344.591949,626.022095 
	C341.149384,623.348328 338.076660,622.101379 334.818268,626.794250 
	C355.735260,643.934143 379.004181,655.754028 406.416931,660.901245 
z"/>
<path fill="#000000" opacity="1.000000" stroke="none" 
	d="
M145.976379,825.968323 
	C151.935944,832.006897 157.757462,838.191406 163.917862,844.017517 
	C166.672821,846.623047 166.528961,848.260986 163.994247,850.893311 
	C144.378143,871.264282 120.111549,877.867249 92.837318,874.367249 
	C63.511395,870.603943 40.938545,856.385498 29.354237,828.377686 
	C8.822022,778.736267 41.168140,726.419739 94.608063,721.591553 
	C117.044083,719.564636 137.637589,723.820740 156.003632,737.271973 
	C156.675110,737.763855 157.384811,738.206299 158.034760,738.724304 
	C166.900330,745.790649 166.925827,746.421753 158.976349,754.172485 
	C155.162491,757.891052 151.199249,761.484863 147.678497,765.466553 
	C144.788818,768.734619 142.814575,768.727051 139.680695,765.571228 
	C127.079071,752.881104 111.756294,748.647156 94.343437,752.258301 
	C73.915398,756.494812 58.880795,775.524658 58.086418,796.353821 
	C57.224232,818.961121 71.118896,835.812561 88.644394,841.988464 
	C107.151482,848.510376 128.003311,845.047607 142.354462,828.606262 
	C143.220245,827.614441 143.909790,826.405273 145.683044,826.056030 
	C146.007294,825.997498 145.976395,825.968323 145.976379,825.968323 
z"/>
<path fill="#000000" opacity="1.000000" stroke="none" 
	d="
M287.300201,839.000000 
	C287.306030,848.494751 287.194122,857.491943 287.374420,866.483154 
	C287.448059,870.156189 286.128815,871.526917 282.444427,871.409729 
	C275.787903,871.197998 269.108429,871.073730 262.462006,871.396057 
	C257.834045,871.620544 255.488419,870.272339 255.956421,865.344666 
	C256.042664,864.436646 256.148254,863.335632 255.165726,862.494751 
	C252.977615,863.013306 251.827240,865.020264 250.164169,866.287415 
	C234.856400,877.950500 204.605835,876.771912 190.287033,863.886719 
	C172.357147,847.751831 177.250000,818.312378 199.371094,808.692993 
	C209.369278,804.345276 219.981873,803.633423 230.598816,803.010559 
	C236.575317,802.659973 242.589722,802.842712 248.584152,802.949036 
	C252.734024,803.022644 253.398682,800.978088 252.367996,797.529358 
	C250.063324,789.817688 243.477188,784.841797 234.313828,784.153687 
	C222.937439,783.299500 212.116318,785.299377 201.920868,790.581177 
	C195.671494,793.818726 195.649628,793.708130 192.242447,787.808533 
	C189.911804,783.772949 187.710464,779.635803 185.044067,775.829346 
	C182.853760,772.702637 183.568649,770.975586 186.545624,769.028687 
	C198.294067,761.345764 211.327713,757.707520 225.143921,756.838135 
	C234.950439,756.221008 244.694122,756.492981 254.347855,759.294067 
	C272.854004,764.663574 283.266632,776.902527 286.246552,795.613281 
	C288.511322,809.833618 286.801453,824.205750 287.300201,839.000000 
M222.714813,850.010376 
	C239.720398,853.856873 252.526993,845.644470 253.655075,830.305176 
	C253.926178,826.619141 252.888565,824.384033 248.910782,824.508545 
	C240.591202,824.768921 232.230301,824.712646 223.970840,825.585510 
	C216.849380,826.338196 212.805649,831.044678 212.419861,837.336731 
	C212.077286,842.924133 215.579483,847.512939 222.714813,850.010376 
z"/>
<path fill="#000000" opacity="1.000000" stroke="none" 
	d="
M632.374817,766.549194 
	C654.917725,781.916687 663.241394,806.285034 655.495972,833.510071 
	C649.098389,855.997192 626.745300,873.054871 602.330383,874.387939 
	C579.985291,875.608093 560.630554,869.266724 546.755188,851.133179 
	C532.903809,833.031067 532.004211,812.364990 539.847900,791.901245 
	C547.590698,771.700684 564.176636,761.293396 585.076660,757.770691 
	C601.689270,754.970581 617.560242,757.156677 632.374817,766.549194 
M570.858582,802.497498 
	C568.744263,808.617920 568.574829,814.925049 569.329224,821.252502 
	C571.397705,838.600586 587.233276,849.351440 604.121643,844.786194 
	C617.178955,841.256531 622.408508,831.344788 624.371765,819.021057 
	C626.670898,804.590149 617.793030,790.013489 604.429810,786.140930 
	C590.294128,782.044617 577.223511,788.181335 570.858582,802.497498 
z"/>
<path fill="#000000" opacity="1.000000" stroke="none" 
	d="
M677.031982,781.007812 
	C677.110107,774.517517 677.265076,768.524963 677.231140,762.533508 
	C677.215454,759.768494 678.332336,758.622681 681.088318,758.649475 
	C689.085266,758.727417 697.084167,758.761963 705.080627,758.668701 
	C708.449768,758.629395 709.461182,760.259521 709.240479,763.326477 
	C709.098816,765.295288 709.213867,767.282532 709.213867,769.150574 
	C711.316650,769.978027 711.941650,768.398987 712.821167,767.620789 
	C728.350037,753.880676 761.762024,751.555054 779.064819,768.982910 
	C788.145630,778.129333 791.591187,789.506775 791.929565,801.630920 
	C792.528992,823.107422 792.033630,844.613342 792.102539,866.106628 
	C792.114563,869.850952 790.893860,871.540710 786.879883,871.413696 
	C779.222656,871.171570 771.549194,871.170105 763.890198,871.367188 
	C759.864929,871.470825 758.761230,869.766296 758.777832,865.996399 
	C758.863892,846.502625 758.773926,827.007996 758.716125,807.513733 
	C758.696533,800.917297 756.828918,794.926514 751.853638,790.408508 
	C742.998291,782.367126 724.216980,784.867981 717.279114,794.644043 
	C711.788513,802.380859 710.418396,811.176880 710.306091,820.251160 
	C710.120544,835.244568 710.078918,850.244995 710.346741,865.235840 
	C710.433838,870.113464 708.791687,871.647827 704.037354,871.415344 
	C697.055725,871.073975 690.032410,871.051025 683.052002,871.397766 
	C678.078186,871.644836 676.816284,869.606140 676.847046,864.980652 
	C677.032104,837.156555 676.994568,809.331055 677.031982,781.007812 
z"/>
<path fill="#000000" opacity="1.000000" stroke="none" 
	d="
M347.187042,867.752563 
	C347.038361,870.577698 345.616760,871.307983 343.483734,871.301758 
	C334.985626,871.277039 326.486694,871.223999 317.989563,871.315552 
	C314.394073,871.354248 313.977905,869.127136 313.969116,866.391724 
	C313.944946,858.893311 313.882904,851.394897 313.883484,843.896484 
	C313.885437,817.735107 313.898254,791.573669 313.928528,765.412292 
	C313.936127,758.850586 314.106995,758.694885 320.655518,758.697815 
	C326.820740,758.700562 332.986267,758.731628 339.151154,758.796204 
	C345.692474,758.864685 346.075592,759.298645 346.178986,765.998962 
	C346.198578,767.270325 345.790802,768.675659 347.281616,770.002258 
	C357.531158,760.061157 370.226624,756.634705 384.153137,756.739075 
	C409.539215,756.929260 427.697449,774.609619 428.219727,800.039612 
	C428.657532,821.355530 428.739502,842.679199 428.910461,863.999939 
	C428.967743,871.148499 428.680878,871.347412 421.716370,871.345093 
	C414.884338,871.342834 408.037933,871.056641 401.225098,871.414429 
	C396.264648,871.675049 394.983490,869.676880 395.016876,865.041260 
	C395.150116,846.554138 394.998138,828.064697 394.898071,809.576477 
	C394.884583,807.087524 394.862091,804.535095 394.332703,802.124268 
	C392.598663,794.227417 388.426208,787.989319 380.053772,786.562134 
	C369.994629,784.847351 360.298279,785.700012 353.544861,794.994446 
	C348.377319,802.106323 347.498566,810.435547 347.371002,818.788452 
	C347.124207,834.948608 347.252747,851.114563 347.187042,867.752563 
z"/>
<path fill="#000000" opacity="1.000000" stroke="none" 
	d="
M493.329590,835.362061 
	C496.015015,845.723022 503.364319,848.988281 515.001343,845.408142 
	C522.499268,843.101379 522.475830,843.107666 524.626953,850.925720 
	C525.818359,855.255615 526.948364,859.612854 528.400635,863.856873 
	C529.374329,866.702209 528.501953,868.297974 525.895630,869.308167 
	C508.513641,876.045410 491.219177,876.370789 474.999268,866.569946 
	C463.312683,859.508362 460.213715,847.403931 460.009949,834.566528 
	C459.790619,820.748962 459.796570,806.922729 460.027496,793.105713 
	C460.104675,788.488953 458.533142,787.119507 453.979218,787.179321 
	C441.704285,787.340454 441.701721,787.148560 441.739441,774.623291 
	C441.742432,773.624146 441.730316,772.624695 441.752106,771.625977 
	C442.010773,759.774902 439.161987,759.742004 453.712646,760.132507 
	C462.181305,760.359863 460.486389,759.580078 460.598907,753.169495 
	C460.695312,747.675598 460.774628,742.176514 460.639069,736.685242 
	C460.555908,733.316467 461.835480,731.792542 465.272919,731.830750 
	C473.098267,731.917542 480.926422,731.932800 488.751099,731.817871 
	C492.244995,731.766541 493.441803,733.345276 493.362000,736.671814 
	C493.218353,742.663391 493.501526,748.670288 493.211029,754.651489 
	C493.006104,758.870422 494.703888,760.235901 498.726898,760.103821 
	C504.714355,759.907104 510.715576,760.172546 516.707703,760.062683 
	C520.583252,759.991638 522.556519,761.240295 522.322266,765.543396 
	C522.033081,770.856262 522.063171,776.206238 522.318420,781.522766 
	C522.520752,785.734558 521.262329,787.603882 516.696472,787.333496 
	C510.722473,786.979736 504.704681,787.420959 498.719849,787.176025 
	C494.745392,787.013367 493.047577,788.183472 493.118988,792.470398 
	C493.354706,806.620972 493.264435,820.776917 493.329590,835.362061 
z"/>
<path fill="#000000" opacity="1.000000" stroke="none" 
	d="
M545.359619,320.842407 
	C552.709045,360.221985 542.883179,394.510345 517.014771,424.260406 
	C509.569977,432.822418 500.963928,440.248840 491.793091,446.958435 
	C489.973785,448.289520 488.391235,450.167908 485.593903,450.440948 
	C484.102631,447.862976 485.362152,445.303528 485.628082,442.795502 
	C487.225494,427.728882 492.609283,414.764008 502.380981,402.570648 
	C523.077759,376.744690 527.992615,347.016571 517.855042,315.456909 
	C507.138977,282.096161 482.670654,263.159576 450.111145,253.295029 
	C447.943573,252.638321 445.470093,252.589523 443.784058,250.736969 
	C443.961731,248.786560 445.652893,248.440399 446.849609,247.707520 
	C453.382965,243.706421 460.051544,239.918533 466.483246,235.762711 
	C469.187775,234.015228 471.508606,233.849777 474.376343,235.133804 
	C511.977966,251.969971 536.155273,279.940369 545.359619,320.842407 
z"/>
<path fill="#000000" opacity="1.000000" stroke="none" 
	d="
M850.428101,814.505371 
	C850.587036,830.593445 850.804382,846.227783 850.903076,861.862915 
	C850.962830,871.342285 850.880310,871.344299 841.697998,871.338196 
	C835.703857,871.334229 829.700562,871.119690 823.718628,871.387024 
	C819.356140,871.581909 817.437439,870.331543 817.488708,865.574768 
	C817.698669,846.112549 817.605103,826.646973 817.607605,807.182617 
	C817.609436,792.548523 817.684143,777.913269 817.505615,763.281189 
	C817.462769,759.768921 818.572937,758.602234 822.069885,758.679688 
	C830.223816,758.860535 838.385315,758.718445 846.543579,758.677124 
	C848.948364,758.664978 850.641846,758.951599 850.611023,762.171997 
	C850.445618,779.464294 850.474609,796.758484 850.428101,814.505371 
z"/>
<path fill="#000000" opacity="1.000000" stroke="none" 
	d="
M113.005959,810.076172 
	C111.489761,818.323425 112.381378,826.321472 112.256035,834.292236 
	C112.187294,838.663330 110.583321,840.428772 106.334663,840.059265 
	C104.843742,839.929565 103.335823,839.922485 101.838066,839.958618 
	C98.279083,840.044556 96.761253,838.453003 96.853317,834.802673 
	C97.017097,828.307983 96.583649,821.788330 96.964462,815.312256 
	C97.257439,810.330017 95.335655,808.974243 90.637337,809.196533 
	C83.654221,809.526855 76.639114,809.121948 69.645821,809.319702 
	C65.689583,809.431580 63.817776,808.106140 63.776569,803.952759 
	C63.605103,786.669250 63.144588,790.223938 76.889999,789.829590 
	C81.885414,789.686279 86.894173,789.640137 91.885338,789.838806 
	C95.546432,789.984558 96.941399,788.638245 96.838943,784.917664 
	C96.641769,777.757751 96.778931,770.587952 96.820534,763.422485 
	C96.858505,756.883057 97.223724,756.533691 103.914139,756.128601 
	C111.354286,755.678040 112.186874,756.437073 112.230339,764.001770 
	C112.268639,770.667236 112.512459,777.349426 112.130760,783.993469 
	C111.856117,788.773987 113.714409,789.936951 118.175972,789.858643 
	C131.169983,789.630310 144.175659,790.005859 157.166946,789.711792 
	C162.251816,789.596802 163.970642,791.739075 164.217499,796.363831 
	C164.890366,808.969360 164.651825,809.170532 152.237366,809.299622 
	C139.263184,809.434509 126.276344,808.657715 113.005959,810.076172 
z"/>
<path fill="#000000" opacity="1.000000" stroke="none" 
	d="
M63.999260,930.384155 
	C56.506443,930.400085 49.509903,930.555725 42.522129,930.374084 
	C38.957043,930.281433 37.865826,931.667725 38.047653,935.091614 
	C38.294533,939.740662 38.250580,944.416748 38.084126,949.072388 
	C37.960018,952.543762 39.406364,953.788757 42.804565,953.738953 
	C52.958492,953.590210 63.119041,953.781799 73.268806,953.521179 
	C76.849899,953.429260 78.222740,954.705139 77.924667,958.092224 
	C77.653702,961.171326 79.046410,965.194824 73.522179,965.151062 
	C63.366478,965.070679 53.208038,965.258179 43.053757,965.117126 
	C39.429493,965.066772 37.940010,966.272583 38.097996,970.021057 
	C38.322136,975.339172 38.281376,980.680237 38.073109,986.000549 
	C37.929352,989.672729 39.344116,991.019592 43.011978,990.981140 
	C54.665440,990.858765 66.324768,991.139465 77.974617,990.905579 
	C82.584511,990.813110 84.114357,992.466675 84.108109,996.983582 
	C84.102211,1001.258057 83.218140,1003.331726 78.306190,1003.252136 
	C62.159878,1002.990601 46.005436,1003.043823 29.856945,1003.226318 
	C25.488148,1003.275635 24.028992,1001.682129 24.043339,997.400818 
	C24.124231,973.259521 24.091455,949.116943 23.897846,924.976379 
	C23.860645,920.337708 25.197475,918.557434 30.151014,918.646240 
	C45.796772,918.926941 61.452152,918.812683 77.101639,918.646973 
	C81.132706,918.604309 83.234726,919.414795 83.180634,924.113586 
	C83.128029,928.682739 82.013588,930.929749 76.979607,930.465271 
	C72.852119,930.084290 68.661690,930.385437 63.999260,930.384155 
z"/>
<path fill="#000000" opacity="1.000000" stroke="none" 
	d="
M486.072205,959.060913 
	C473.219757,950.177124 475.804901,930.949158 487.870544,923.169128 
	C498.804413,916.118896 522.642456,916.075195 533.431885,923.454590 
	C537.967041,926.556396 533.512939,929.650513 532.951111,932.643066 
	C532.400635,935.574890 530.227478,935.247742 527.897827,934.207458 
	C519.829346,930.604492 511.401520,928.860718 502.585266,930.412720 
	C494.030884,931.918640 489.586975,938.585449 492.369690,945.298279 
	C494.031219,949.306274 497.565521,950.709106 501.320007,951.762329 
	C510.274872,954.274475 519.537537,955.830444 527.726868,960.652161 
	C538.733398,967.132507 542.225952,977.653931 536.906555,989.263611 
	C533.098633,997.574524 525.849365,1001.521484 517.375366,1003.266479 
	C505.156403,1005.782593 493.527374,1003.376953 482.497925,997.909180 
	C474.296997,993.843628 473.864319,990.002686 480.699219,983.107056 
	C484.141205,984.968201 487.508514,987.158386 491.153351,988.686829 
	C500.160217,992.463806 509.404694,993.645447 518.792542,989.948425 
	C522.892334,988.333984 525.268066,985.203857 525.577026,980.868225 
	C525.897583,976.368347 523.336182,973.481018 519.549500,971.343140 
	C514.978516,968.762451 509.941956,967.642029 504.971710,966.306458 
	C498.533234,964.576233 492.078918,962.924927 486.072205,959.060913 
z"/>
<path fill="#000000" opacity="1.000000" stroke="none" 
	d="
M405.227783,937.930786 
	C422.600922,938.156982 432.833740,948.178284 433.076569,964.981812 
	C433.235474,975.977173 432.927643,986.981750 433.223694,997.971619 
	C433.396973,1004.404297 429.046844,1002.932800 425.431580,1003.229553 
	C421.597229,1003.544189 419.576874,1002.495911 419.680450,998.052063 
	C419.928864,987.393433 419.825073,976.724915 419.758362,966.061096 
	C419.694427,955.848450 414.386536,950.309021 404.665375,950.117004 
	C394.796509,949.922058 388.178284,956.081726 387.925812,965.922974 
	C387.652496,976.576843 387.329590,987.238464 387.483765,997.890076 
	C387.554230,1002.757629 385.147400,1003.335876 381.305420,1003.212463 
	C377.470856,1003.089111 374.000580,1003.381775 374.025513,997.708618 
	C374.139740,971.716919 374.099548,945.723267 373.873352,919.732361 
	C373.825378,914.222656 376.958008,914.122437 380.954163,913.993164 
	C385.209595,913.855408 388.096863,914.592651 387.975769,919.794922 
	C387.790466,927.755066 387.927155,935.722778 387.927155,944.633118 
	C393.262665,941.258057 398.608215,938.367188 405.227783,937.930786 
z"/>
<path fill="#000000" opacity="1.000000" stroke="none" 
	d="
M676.198792,975.005981 
	C676.174683,983.001099 675.959412,990.503174 676.184814,997.991943 
	C676.378113,1004.413391 671.903503,1002.845886 668.302185,1003.152222 
	C664.238037,1003.497925 662.653809,1001.915161 662.736328,997.721985 
	C662.942627,987.231323 662.864746,976.732971 662.760071,966.239014 
	C662.657776,955.977722 657.467163,950.286987 648.344055,950.171509 
	C638.117065,950.041992 631.332092,956.131165 631.080750,966.117493 
	C630.820984,976.440063 630.704956,986.778381 630.982483,997.097473 
	C631.128906,1002.542664 628.543884,1003.273682 623.959595,1003.332092 
	C619.195496,1003.392761 617.592773,1001.869873 617.626526,997.041931 
	C617.806885,971.222290 617.880920,945.398560 617.563293,919.581421 
	C617.486450,913.337524 621.057495,914.119385 624.950256,913.913513 
	C629.378845,913.679321 631.349731,915.145203 631.073181,919.906433 
	C630.716309,926.049805 630.959045,932.228699 630.967590,938.392273 
	C630.970093,940.166870 630.725342,941.999817 631.783447,943.940796 
	C634.333618,942.654297 636.602783,941.322449 639.010559,940.325012 
	C657.336548,932.732605 675.313965,944.214294 676.118164,964.012878 
	C676.260132,967.506287 676.177734,971.008789 676.198792,975.005981 
z"/>
<path fill="#000000" opacity="1.000000" stroke="none" 
	d="
M770.337158,948.369263 
	C782.280945,937.204651 796.971558,934.942810 810.134460,942.004028 
	C822.974548,948.892090 829.167236,962.335449 826.489929,977.509155 
	C824.020386,991.505737 812.448181,1002.198425 797.740845,1004.073181 
	C784.379761,1005.776245 770.150391,997.458069 764.672852,984.688232 
	C759.043579,971.564636 761.716003,959.666870 770.337158,948.369263 
M785.161194,989.508057 
	C794.551270,993.936157 803.692932,992.115540 809.306030,984.699280 
	C814.687317,977.589294 815.177307,965.938354 810.414246,958.353088 
	C806.230225,951.689941 797.890625,948.250854 790.626221,950.109985 
	C782.130066,952.284302 777.170349,957.843628 775.801575,966.313354 
	C774.323608,975.458435 776.549561,983.457947 785.161194,989.508057 
z"/>
<path fill="#000000" opacity="1.000000" stroke="none" 
	d="
M719.290283,937.991516 
	C735.691101,938.461182 747.872192,946.388977 751.896179,960.215759 
	C756.549683,976.205750 752.191223,991.428589 737.150391,999.790527 
	C722.825623,1007.754211 705.684326,1004.203369 695.463196,991.221741 
	C685.935059,979.120361 686.484619,960.342834 696.903870,948.757507 
	C702.725830,942.284119 710.295959,939.066162 719.290283,937.991516 
M723.210632,991.813293 
	C733.752930,990.507202 741.485229,980.729431 740.501343,969.948547 
	C739.497131,958.943848 733.462341,951.317322 724.816040,950.125977 
	C712.589783,948.441345 703.367432,955.950073 702.350220,968.417419 
	C701.204529,982.458984 708.986450,991.575012 723.210632,991.813293 
z"/>
<path fill="#000000" opacity="1.000000" stroke="none" 
	d="
M157.221527,970.036377 
	C157.203629,979.689880 156.992508,988.854614 157.243652,998.006531 
	C157.379044,1002.940308 154.671066,1003.312439 150.916916,1003.252808 
	C147.240982,1003.194336 143.879883,1003.516602 143.978348,998.086487 
	C144.174545,987.266479 144.207504,976.433472 143.903519,965.617188 
	C143.604599,954.982178 137.783066,949.818848 127.299728,950.236206 
	C118.821907,950.573669 112.315178,957.413208 112.201706,966.369324 
	C112.070900,976.692932 111.861946,987.027832 112.208183,997.340332 
	C112.402412,1003.125244 109.268326,1003.231567 104.999954,1003.286011 
	C100.704483,1003.340759 98.648483,1002.312317 98.723503,997.430237 
	C98.984474,980.447571 98.766525,963.457886 98.945084,946.473083 
	C98.976860,943.450073 97.122574,938.981323 103.089386,938.742310 
	C109.680275,938.478149 110.272736,938.813110 111.469666,945.357788 
	C113.098465,945.715576 113.680977,944.164307 114.660744,943.468994 
	C123.955879,936.872803 133.903183,936.150818 143.946762,940.980652 
	C153.602783,945.624146 156.508163,954.596313 157.187973,964.546997 
	C157.301224,966.205078 157.214905,967.876831 157.221527,970.036377 
z"/>
<path fill="#000000" opacity="1.000000" stroke="none" 
	d="
M311.794250,961.928223 
	C310.832947,949.218750 317.833008,940.659363 330.065857,938.687317 
	C339.234161,937.209351 347.931915,938.536926 356.379852,942.142334 
	C360.918976,944.079529 358.933807,946.954468 357.613129,949.904846 
	C356.339294,952.750671 355.317169,954.849731 351.433868,952.899231 
	C345.029205,949.682373 338.109222,948.867188 331.034821,950.303162 
	C327.576477,951.005066 324.680511,952.536682 324.303619,956.573792 
	C323.928864,960.588135 326.766876,962.304138 329.853485,963.239807 
	C335.572876,964.973511 341.470551,966.117493 347.195007,967.836548 
	C353.323364,969.677002 359.227631,971.955322 361.432007,978.998718 
	C363.853119,986.734436 361.053589,994.697205 354.209534,998.992004 
	C343.526733,1005.695740 322.062500,1005.010132 311.641754,997.841003 
	C308.451416,995.645996 309.905487,993.542175 311.325470,991.537415 
	C312.725494,989.560669 313.029755,985.394165 317.291260,987.847046 
	C322.612823,990.910217 328.517212,991.855713 334.500641,992.499023 
	C338.408234,992.919189 342.169220,992.402466 345.604004,990.459106 
	C347.885651,989.168091 349.553406,987.128662 349.424927,984.435730 
	C349.297852,981.771973 347.080566,980.372375 344.816345,979.736694 
	C338.420380,977.940918 331.924774,976.502319 325.517059,974.745605 
	C318.907074,972.933350 313.663361,969.476929 311.794250,961.928223 
z"/>
<path fill="#000000" opacity="1.000000" stroke="none" 
	d="
M591.565552,987.587402 
	C596.191406,982.450134 598.983704,982.470947 603.880432,987.153442 
	C605.706604,988.899658 605.019409,990.347046 603.961609,991.984985 
	C600.211609,997.791382 594.546814,1000.793884 588.147461,1002.580688 
	C573.675659,1006.621399 557.852783,999.936279 550.946228,986.970825 
	C543.831787,973.615234 547.151855,955.504150 558.474487,945.905151 
	C570.512146,935.699890 587.091736,935.282288 599.460327,944.873291 
	C599.855408,945.179565 600.301025,945.441406 600.631653,945.806641 
	C602.264954,947.611755 605.374329,949.239502 604.589844,951.681030 
	C603.549988,954.917053 599.851807,956.146423 596.894653,957.584534 
	C595.224854,958.396606 594.270691,956.559631 593.210876,955.608276 
	C586.024048,949.156982 576.003662,948.135559 568.996887,953.186035 
	C561.046204,958.916931 558.170593,971.087097 562.488159,980.731812 
	C566.427673,989.531921 574.728882,993.660339 584.289673,991.531189 
	C586.947205,990.939392 589.221191,989.557007 591.565552,987.587402 
z"/>
<path fill="#000000" opacity="1.000000" stroke="none" 
	d="
M580.242310,423.711517 
	C572.612610,411.086731 563.690613,399.934906 553.283508,390.032288 
	C550.704407,387.578247 549.927856,385.329224 551.331665,382.165527 
	C552.979187,378.452545 552.734802,374.024048 555.765747,370.205170 
	C564.306274,377.229797 571.961853,384.760773 578.793823,393.127686 
	C591.740540,408.983185 601.825073,426.437225 608.579651,445.829437 
	C610.075439,450.123840 609.194580,452.108215 604.790588,452.638428 
	C604.627136,452.658112 604.471252,452.734009 604.308228,452.764374 
	C592.739075,454.918182 595.411804,456.057983 591.349060,445.868225 
	C588.325867,438.286011 584.584351,431.048920 580.242310,423.711517 
z"/>
<path fill="#000000" opacity="1.000000" stroke="none" 
	d="
M814.628479,731.836426 
	C812.400146,722.086853 815.538025,714.679260 823.655762,709.769348 
	C831.020874,705.314636 841.976990,706.371277 848.917664,712.205505 
	C854.999512,717.317810 857.108704,725.452576 854.067200,733.066956 
	C851.133240,740.411987 845.388672,744.271606 837.687683,745.201721 
	C829.057129,746.244080 821.904785,743.607117 816.933289,736.162598 
	C816.104675,734.921753 815.499084,733.532043 814.628479,731.836426 
z"/>
<path fill="#000000" opacity="1.000000" stroke="none" 
	d="
M289.641418,437.636292 
	C287.513245,442.372498 285.183655,446.617828 283.900818,451.309418 
	C283.278778,453.584351 281.969299,454.316681 279.426361,453.888123 
	C265.692505,451.573547 265.579773,451.329102 271.132812,438.512848 
	C279.415375,419.396942 290.488068,402.108765 304.525024,386.718872 
	C305.419922,385.737701 306.360443,384.790649 307.352997,383.910309 
	C307.681488,383.618958 308.240479,383.587494 309.300903,383.236145 
	C311.173401,388.196777 313.073456,393.102631 314.862701,398.048523 
	C315.398712,399.530243 314.224731,400.508331 313.370483,401.521667 
	C304.101776,412.516846 296.485474,424.600342 289.641418,437.636292 
z"/>
<path fill="#000000" opacity="1.000000" stroke="none" 
	d="
M265.273987,997.817444 
	C265.687073,1004.961853 260.655182,1002.760498 257.285248,1003.146790 
	C253.416275,1003.590271 251.968750,1001.685608 251.975098,997.886902 
	C252.018768,971.772461 252.059952,945.657043 251.847336,919.543945 
	C251.798004,913.484558 255.588043,914.104370 259.476288,913.929016 
	C263.515076,913.746948 265.487823,914.862671 265.450134,919.494263 
	C265.238922,945.441284 265.303711,971.390625 265.273987,997.817444 
z"/>
<path fill="#000000" opacity="1.000000" stroke="none" 
	d="
M852.354431,970.000000 
	C852.328918,979.145996 852.378052,987.793213 852.225220,996.436890 
	C852.184998,998.710632 853.109558,1002.293884 849.465515,1002.282288 
	C846.335510,1002.272339 847.036011,998.957947 846.768921,996.744507 
	C846.696533,996.144348 846.417236,995.569214 846.149841,994.718384 
	C842.930908,995.993408 845.740784,999.880615 842.633911,1001.093323 
	C839.471313,999.013794 839.923279,995.457092 839.876953,992.395508 
	C839.680725,979.428528 839.733765,966.457764 839.713196,953.488342 
	C839.695007,942.015259 839.916748,930.536377 839.611389,919.071289 
	C839.435913,912.483765 843.959167,914.291443 847.434937,913.965454 
	C851.217224,913.610718 852.603088,915.052246 852.538025,919.120178 
	C852.269592,935.910156 852.381470,952.706177 852.354431,970.000000 
z"/>
<path fill="#000000" opacity="1.000000" stroke="none" 
	d="
M464.593414,472.046295 
	C445.303162,474.745636 426.471191,477.871338 407.439636,479.398041 
	C401.789398,479.851318 398.630035,477.984375 398.084503,474.252930 
	C397.479034,470.111389 400.602814,466.476410 405.973236,465.744080 
	C423.570251,463.344482 441.190155,461.112946 458.803284,458.832184 
	C459.623718,458.725922 460.464935,458.791443 461.293915,458.737518 
	C465.277557,458.478333 468.782654,459.266693 469.840454,463.735931 
	C470.812866,467.844391 468.482208,470.306580 464.593414,472.046295 
z"/>
<path fill="#000000" opacity="1.000000" stroke="none" 
	d="
M401.416382,496.831299 
	C396.433411,490.464264 399.060272,485.095795 407.391449,484.051514 
	C416.946808,482.853760 426.531891,481.894592 436.100159,480.797485 
	C443.192810,479.984253 450.279419,479.118164 457.367981,478.269440 
	C458.027618,478.190460 458.679199,478.042908 459.339142,477.968018 
	C465.512848,477.267487 469.508453,479.334656 469.981323,483.463867 
	C470.475525,487.779083 466.655243,491.302734 460.880676,492.006134 
	C444.566620,493.993225 428.263763,496.073456 411.943146,498.004395 
	C408.531219,498.408081 404.980011,499.203186 401.416382,496.831299 
z"/>
<path fill="#000000" opacity="1.000000" stroke="none" 
	d="
M283.968506,953.016663 
	C283.948242,950.020447 284.081879,947.508545 283.877258,945.024475 
	C283.484741,940.259521 285.473419,938.505859 290.272217,938.711731 
	C297.020874,939.001221 297.235382,938.936218 297.247467,945.759216 
	C297.277832,962.921875 297.172943,980.085999 297.389160,997.246216 
	C297.446014,1001.756470 296.102783,1003.529602 291.412994,1003.304565 
	C284.558655,1002.975708 284.005371,1002.830261 283.988617,997.005310 
	C283.946899,982.508179 283.971619,968.010803 283.968506,953.016663 
z"/>
<path fill="#000000" opacity="1.000000" stroke="none" 
	d="
M433.785095,500.660187 
	C440.630951,500.113953 447.016266,499.583374 453.391479,499.053650 
	C453.983459,507.026947 446.546692,514.978394 438.006378,516.145813 
	C426.528259,517.714844 416.986847,512.319397 415.316772,502.783630 
	C421.216949,501.337402 427.321350,501.342224 433.785095,500.660187 
z"/>
<path fill="#000000" opacity="1.000000" stroke="none" 
	d="
M577.499146,433.609924 
	C581.434021,441.335083 584.877197,448.856842 587.154419,457.014404 
	C583.275391,459.533447 581.045471,458.987427 579.522400,454.675018 
	C572.729187,435.440979 562.524109,418.245728 548.232605,403.597626 
	C545.545776,400.843750 545.244568,398.297333 548.511169,394.861725 
	C560.577332,405.955505 569.377930,419.287994 577.499146,433.609924 
z"/>
<path fill="#000000" opacity="1.000000" stroke="none" 
	d="
M660.823608,177.929825 
	C659.997009,168.877197 659.311707,160.269165 658.336487,151.694107 
	C658.002258,148.755005 658.057190,146.609573 661.742615,146.760422 
	C664.755676,146.883759 668.457336,145.901947 668.360352,151.047531 
	C668.131592,163.179047 668.332214,175.328293 667.740417,187.440155 
	C667.285522,196.749100 667.485779,206.048904 667.177734,215.347183 
	C667.137207,216.569717 667.543274,218.058395 664.965637,219.413834 
	C663.563171,205.429153 662.207214,191.908264 660.823608,177.929825 
z"/>
<path fill="#000000" opacity="1.000000" stroke="none" 
	d="
M313.901306,410.913879 
	C315.396667,409.408051 316.090149,407.512543 318.270691,407.066193 
	C321.305634,409.668335 321.508423,412.238281 318.850006,415.462616 
	C309.245605,427.111450 302.359314,440.305786 297.341522,454.493408 
	C296.421997,457.093414 295.420868,459.217621 292.125488,458.151337 
	C288.454102,456.963409 290.288666,454.432770 290.987823,452.448822 
	C296.272614,437.452820 303.863342,423.708862 313.901306,410.913879 
z"/>
<path fill="#000000" opacity="1.000000" stroke="none" 
	d="
M129.323242,774.396362 
	C125.195328,777.113342 121.372597,779.638550 116.709343,782.718872 
	C115.236908,773.906067 115.851654,766.083374 116.352844,757.595154 
	C124.482567,759.746521 130.341141,763.660217 135.654907,768.839294 
	C134.334366,771.789551 131.581909,772.555481 129.323242,774.396362 
z"/>
<path fill="#000000" opacity="1.000000" stroke="none" 
	d="
M76.805740,772.129883 
	C74.844398,770.774780 74.273125,769.377502 75.914696,767.849426 
	C80.667358,763.425049 86.077034,760.154907 92.896240,758.020447 
	C92.896240,766.187866 92.896240,773.613342 92.896240,782.252441 
	C87.068649,778.589966 82.091026,775.461731 76.805740,772.129883 
z"/>
<path fill="#000000" opacity="1.000000" stroke="none" 
	d="
M290.103058,929.249817 
	C284.036682,927.616272 281.024689,923.441223 282.180725,918.828796 
	C283.287048,914.414978 287.390808,911.896545 292.187592,912.687744 
	C296.570007,913.410645 299.435028,916.732178 299.295380,920.928162 
	C299.137268,925.678772 296.300110,928.371582 290.103058,929.249817 
z"/>
<path fill="#000000" opacity="1.000000" stroke="none" 
	d="
M130.064117,825.861389 
	C131.540268,826.938965 133.020752,827.483826 133.968552,829.612000 
	C130.014435,834.298645 124.565636,836.729980 118.584732,838.220886 
	C116.969246,838.623596 116.009621,837.646790 115.998123,836.025208 
	C115.957321,830.266846 115.530319,824.484253 116.465050,818.031555 
	C121.771210,819.971924 125.556511,823.216553 130.064117,825.861389 
z"/>
<path fill="#000000" opacity="1.000000" stroke="none" 
	d="
M90.960640,817.024414 
	C92.146599,817.335083 93.236473,817.835327 93.244827,819.254211 
	C93.280685,825.348755 93.260139,831.443665 93.260139,838.317444 
	C85.906471,836.775635 80.577103,833.499451 75.825058,828.348022 
	C80.533524,823.752502 86.107788,821.335510 90.809708,817.255249 
	C90.992790,816.999084 90.960640,817.024414 90.960640,817.024414 
z"/>
<path fill="#000000" opacity="1.000000" stroke="none" 
	d="
M154.810913,813.862366 
	C157.594193,814.289368 161.189301,812.667236 161.954224,815.481384 
	C163.008591,819.360352 161.012192,823.154419 158.491669,827.383057 
	C152.617004,823.351257 146.960022,819.468811 140.318085,814.910400 
	C145.890701,813.116150 150.170120,814.165649 154.810913,813.862366 
z"/>
<path fill="#000000" opacity="1.000000" stroke="none" 
	d="
M146.025513,826.008484 
	C139.879654,823.022888 133.109848,821.007568 128.409180,815.387024 
	C134.811005,812.179443 155.078934,823.684937 157.660126,832.223145 
	C152.649002,832.265381 150.386490,827.740723 146.300674,826.087158 
	C145.976395,825.968323 146.007294,825.997498 146.025513,826.008484 
z"/>
<path fill="#000000" opacity="1.000000" stroke="none" 
	d="
M119.202141,784.899780 
	C118.290955,782.407166 120.415421,781.997498 121.601967,781.161987 
	C125.385170,778.498047 129.372467,776.125305 133.177322,773.490479 
	C136.338486,771.301331 138.619003,771.903931 140.763336,775.730774 
	C134.099655,780.046753 128.863007,786.908569 119.202141,784.899780 
z"/>
<path fill="#000000" opacity="1.000000" stroke="none" 
	d="
M91.007393,816.984741 
	C86.039970,818.261719 82.409431,821.920227 78.124054,824.425293 
	C75.831177,825.765564 74.033417,826.612183 72.223328,823.917480 
	C70.155350,820.838867 73.075600,820.144043 74.639816,819.096497 
	C78.756805,816.339417 82.722038,813.034668 88.247169,813.813171 
	C89.819969,814.034729 91.939644,813.524353 91.077690,816.698608 
	C90.960640,817.024414 90.992790,816.999084 91.007393,816.984741 
z"/>
<path fill="#000000" opacity="1.000000" stroke="none" 
	d="
M80.940292,784.379028 
	C76.698029,785.566528 72.765129,785.786804 69.118073,782.958740 
	C66.931915,781.263672 67.497177,779.690857 68.586906,777.851013 
	C69.796898,775.808167 71.317543,776.369507 72.736084,777.455872 
	C75.549423,779.610168 79.255531,780.645081 80.940292,784.379028 
z"/>
</svg>